<?xml version="1.0" encoding="iso-8859-1"?>
<!-- Generator: Adobe Illustrator 19.0.0, SVG Export Plug-In . SVG Version: 6.00 Build 0)  -->
<svg version="1.1" id="Capa_1" xmlns="http://www.w3.org/2000/svg" xmlns:xlink="http://www.w3.org/1999/xlink" x="0px" y="0px"
	 viewBox="0 0 465 465" style="enable-background:new 0 0 465 465;" xml:space="preserve">
<g>
	<path style="fill:#4FC153;" d="M274.254,139.4c0-20.181-16.419-36.6-36.6-36.6h-74.71v22.299h72.089
		c2.404,0,4.662,1.152,6.073,3.099l10.509,14.501c2.431,3.354,1.682,8.043-1.672,10.474c-1.33,0.964-2.869,1.428-4.395,1.428
		c-2.323,0-4.612-1.075-6.079-3.1l-8.264-11.402h-68.262v67.315c0,23.358,18.995,42.5,42.343,42.671
		c4.12,0.03,7.445,3.379,7.445,7.5v76.1h48.682v-71.327c0-31.589,25.699-57.288,57.288-57.288h17.957h17.937h84.949
		c5.766,0,10.457-4.691,10.457-10.457v-8.668l-10.073-6.879l-13.341,9.111c-2.551,1.742-5.909,1.742-8.459,0l-13.343-9.111
		l-13.343,9.112c-2.551,1.741-5.909,1.741-8.458,0l-13.345-9.112l-13.341,9.111c-2.551,1.742-5.908,1.742-8.459,0l-13.347-9.113
		l-13.348,9.113c-2.551,1.74-5.907,1.741-8.458,0l-13.351-9.114l-13.351,9.114c-1.293,0.883-2.766,1.306-4.222,1.306
		c-2.396,0-4.749-1.145-6.201-3.272c-2.335-3.421-1.455-8.087,1.966-10.423l17.579-12c2.551-1.741,5.906-1.741,8.457,0l13.351,9.113
		l13.349-9.113c2.551-1.741,5.907-1.742,8.458,0l13.347,9.112l13.341-9.111c2.551-1.742,5.908-1.743,8.459,0l13.346,9.112
		l13.343-9.112c2.551-1.741,5.908-1.742,8.459,0l13.343,9.111l13.34-9.111c2.551-1.742,5.909-1.742,8.459,0l5.844,3.991V146.9
		H281.754C277.612,146.9,274.254,143.542,274.254,139.4z"/>
	<path style="fill:#0C80E4;" d="M147.943,207.415V102.8h-27.552C62.278,102.8,15,150.078,15,208.191V390h182.731V264.548
		C169.678,260.681,147.943,236.459,147.943,207.415z"/>
	<rect x="276.413" y="435" style="fill:#FECC33;" width="34.788" height="15"/>
	<rect x="276.413" y="405" style="fill:#FF9926;" width="34.788" height="15"/>
	<path style="fill:#FECC33;" d="M37.5,435H15v15h182.731v-15H67.5c-4.142,0-7.5-3.358-7.5-7.5H45C45,431.642,41.642,435,37.5,435z"
		/>
	<path style="fill:#FF9926;" d="M15,420h22.5c4.142,0,7.5,3.358,7.5,7.5h15c0-4.142,3.358-7.5,7.5-7.5h130.231v-15H15V420z"/>
	<path style="fill:#0C80E4;" d="M276.413,262.359V390h34.788V242.571c0-4.142,3.358-7.5,7.5-7.5h0v-15
		C295.383,220.071,276.413,239.041,276.413,262.359z"/>
	<path style="fill:#E43017;" d="M179.022,57.816c11.805,0,21.408-9.604,21.408-21.408S190.827,15,179.022,15
		s-21.408,9.604-21.408,21.408S167.218,57.816,179.022,57.816z"/>
	<path d="M371.908,301.798c-3.365-2.413-8.052-1.642-10.465,1.725c-2.414,3.366-1.641,8.052,1.725,10.465
		c7.42,5.32,13.621,11.982,18.365,19.521c-14.33,4.715-24.707,18.217-24.707,34.104V457.5c0,4.142,3.358,7.5,7.5,7.5
		s7.5-3.358,7.5-7.5v-89.887c0-9.967,7.018-18.313,16.368-20.391c2.646,7.402,4.058,15.277,4.058,23.311c0,4.142,3.358,7.5,7.5,7.5
		s7.5-3.358,7.5-7.5C407.251,343.361,394.039,317.666,371.908,301.798z"/>
	<path d="M112.502,72.816h133.04c4.142,0,7.5-3.358,7.5-7.5s-3.358-7.5-7.5-7.5h-37.096c4.387-6.013,6.985-13.411,6.985-21.408
		C215.431,16.333,199.098,0,179.022,0s-36.408,16.333-36.408,36.408c0,7.997,2.598,15.395,6.985,21.408h-37.097
		c-4.142,0-7.5,3.358-7.5,7.5S108.36,72.816,112.502,72.816z M179.022,15c11.805,0,21.408,9.604,21.408,21.408
		s-9.604,21.408-21.408,21.408s-21.408-9.604-21.408-21.408S167.218,15,179.022,15z"/>
	<path d="M457.5,122.35c-4.142,0-7.5,3.358-7.5,7.5v2.05H288.703c-3.644-24.91-25.144-44.1-51.049-44.1H120.391
		C54.007,87.8,0,141.807,0,208.191V457.5c0,4.142,3.358,7.5,7.5,7.5h197.731c4.142,0,7.5-3.358,7.5-7.5V348.686h48.682V457.5
		c0,4.142,3.358,7.5,7.5,7.5h49.788c4.142,0,7.5-3.358,7.5-7.5V242.571c0-4.142-3.358-7.5-7.5-7.5h0c-4.142,0-7.5,3.358-7.5,7.5V390
		h-34.788V262.359c0-23.318,18.97-42.288,42.288-42.288h0h17.957h17.937h84.949c14.037,0,25.457-11.42,25.457-25.457v-12.571
		c0-0.01,0-0.021,0-0.031V129.85C465,125.708,461.642,122.35,457.5,122.35z M197.731,420H67.5c-4.142,0-7.5,3.358-7.5,7.5
		s3.358,7.5,7.5,7.5h130.231v15H15v-15h22.5c4.142,0,7.5-3.358,7.5-7.5s-3.358-7.5-7.5-7.5H15v-15h182.731V420z M197.731,390H15
		V208.191C15,150.078,62.278,102.8,120.391,102.8h27.552v104.615c0,29.044,21.735,53.266,49.788,57.134V390z M311.201,450h-34.788
		v-15h34.788V450z M311.201,405v15h-34.788v-15H311.201z M450,167.782l-5.844-3.991c-2.551-1.741-5.909-1.742-8.459,0l-13.34,9.111
		l-13.343-9.111c-2.551-1.742-5.908-1.742-8.459,0l-13.343,9.112l-13.346-9.112c-2.551-1.742-5.908-1.742-8.459,0l-13.341,9.111
		l-13.347-9.112c-2.551-1.742-5.907-1.741-8.458,0l-13.349,9.113l-13.351-9.113c-2.551-1.741-5.906-1.741-8.457,0l-17.579,12
		c-3.421,2.335-4.301,7.002-1.966,10.423c1.452,2.127,3.806,3.272,6.201,3.272c1.456,0,2.928-0.423,4.222-1.306l13.351-9.114
		l13.351,9.114c2.551,1.741,5.907,1.74,8.458,0l13.348-9.113l13.347,9.113c2.551,1.741,5.908,1.742,8.459,0l13.341-9.111
		l13.345,9.112c2.55,1.741,5.908,1.741,8.458,0l13.343-9.112l13.343,9.111c2.551,1.742,5.909,1.742,8.459,0l13.341-9.111
		L450,185.946v8.668c0,5.766-4.691,10.457-10.457,10.457h-84.949h-17.937h-17.957c-31.589,0-57.288,25.699-57.288,57.288v71.327
		h-48.682v-76.1c0-4.121-3.325-7.47-7.445-7.5c-23.348-0.171-42.343-19.313-42.343-42.671v-67.315h68.262l8.264,11.402
		c1.467,2.024,3.756,3.1,6.079,3.1c1.525,0,3.065-0.464,4.395-1.428c3.354-2.431,4.103-7.12,1.672-10.474l-10.509-14.501
		c-1.411-1.947-3.669-3.099-6.073-3.099h-72.089V102.8h74.71c20.181,0,36.6,16.419,36.6,36.6c0,4.142,3.358,7.5,7.5,7.5H450V167.782
		z"/>
</g>
<g>
</g>
<g>
</g>
<g>
</g>
<g>
</g>
<g>
</g>
<g>
</g>
<g>
</g>
<g>
</g>
<g>
</g>
<g>
</g>
<g>
</g>
<g>
</g>
<g>
</g>
<g>
</g>
<g>
</g>
</svg>
